<?xml version="1.0" encoding="UTF-8"?>
<svg version="1.1" xmlns="http://www.w3.org/2000/svg" width="162" height="162">
<path d="M0 0 C5.5 3 5.5 3 7 6 C7.56002785 12.49632312 6.31757072 16.43122058 3 22 C3.62261719 22.13148437 4.24523437 22.26296875 4.88671875 22.3984375 C7 23 7 23 8.8125 24.625 C10.49565719 27.99131438 9.76115885 30.4017945 9 34 C9.7734375 34.08636719 10.546875 34.17273437 11.34375 34.26171875 C19.51524477 35.36406149 24.96795314 37.33450285 31.0625 42.875 C32.56134432 46.27238046 31.97453544 48.46730904 31 52 C29.49747207 54.25132873 27.87834802 56.02532644 26 58 C26.39832031 58.79921875 26.79664063 59.5984375 27.20703125 60.421875 C34.48226072 75.50337259 37.93433791 89.69973613 32.3203125 105.9921875 C28.76838597 114.08385444 22.55347482 120.44742119 15 125 C14.01 125 13.02 125 12 125 C12.17128418 125.62865967 12.34256836 126.25731934 12.51904297 126.9050293 C19.49572729 152.65657882 19.49572729 152.65657882 20 161 C19 162 19 162 17.25274563 162.12304783 C16.48673566 162.12212604 15.72072569 162.12120424 14.9315033 162.12025452 C13.61683327 162.12231651 13.61683327 162.12231651 12.27560425 162.12442017 C10.82228195 162.11902725 10.82228195 162.11902725 9.33959961 162.11352539 C8.32508224 162.11367142 7.31056488 162.11381744 6.26530457 162.1139679 C2.89429627 162.11326829 -0.47665754 162.10547368 -3.84765625 162.09765625 C-6.17793243 162.09579224 -8.508209 162.09436826 -10.83848572 162.09336853 C-16.98537265 162.08954202 -23.13223613 162.0797106 -29.27911377 162.06866455 C-35.54609866 162.05845329 -41.81308732 162.05387152 -48.08007812 162.04882812 C-60.38672908 162.03808845 -72.69336259 162.02101044 -85 162 C-85.0278563 160.26368303 -85.04758404 158.52723463 -85.06396484 156.79077148 C-85.07583832 155.82380844 -85.08771179 154.8568454 -85.09994507 153.86058044 C-84.95406309 149.68521536 -83.91777861 146.00983245 -82.625 142.0625 C-82.40328125 141.33482422 -82.1815625 140.60714844 -81.953125 139.85742188 C-80.88531795 136.42473627 -79.75669568 133.14399273 -78 130 C-78.8353125 129.88785156 -78.8353125 129.88785156 -79.6875 129.7734375 C-88.41521112 128.26967646 -93.58069778 124.24001327 -98.8125 117.1875 C-105.27978228 107.4055514 -107.77979815 95.25495038 -105.55078125 83.6640625 C-105.09771559 82.08957899 -104.55990269 80.53973238 -104 79 C-105.051875 79.0825 -106.10375 79.165 -107.1875 79.25 C-111 79 -111 79 -113.9375 77.375 C-116 75 -116 75 -116.6875 72.3125 C-115.02068608 64.28148747 -109.25110438 58.87586142 -103 54 C-103.71542969 53.33291016 -103.71542969 53.33291016 -104.4453125 52.65234375 C-106.51092013 50.45698689 -106.85394923 48.99404076 -107 46 C-105.5625 43.6875 -105.5625 43.6875 -104 42 C-104.9075 41.484375 -105.815 40.96875 -106.75 40.4375 C-110.40386548 37.9553016 -112.6484176 35.23716937 -114 31 C-114.50737547 25.9864424 -113.72166372 22.93056637 -110.625 18.9375 C-106.19384996 15.86978074 -101.1361125 16.21714525 -96 17 C-86.73464918 19.88936899 -80.55171354 26.73559845 -76 35 C-74.58074219 34.31164063 -74.58074219 34.31164063 -73.1328125 33.609375 C-57.12073977 26.08128034 -41.60802659 23.4162654 -24 23 C-23.78085938 22.29875 -23.56171875 21.5975 -23.3359375 20.875 C-20.66898275 12.89581831 -17.5023934 7.04555948 -11.125 1.5 C-7.22210364 -0.37339025 -4.25040555 -0.86191127 0 0 Z " fill="#F5D1A7" transform="translate(120,0)"/>
<path d="M0 0 C0.91330078 0.00902344 1.82660156 0.01804687 2.76757812 0.02734375 C4.99117319 0.05062747 7.21418677 0.0833229 9.4375 0.125 C9.83453125 1.1975 10.2315625 2.27 10.640625 3.375 C12.97893336 8.80732294 17.2148495 11.57329405 22.4375 14.125 C26.19156805 14.1865421 28.32465646 13.64458549 31.6796875 12.078125 C38.21929944 9.81797583 47.48057792 10.09755108 54.0625 12.3125 C57.64384624 14.23581557 60.0176917 15.84655005 62.4375 19.125 C62.5625 21.6875 62.5625 21.6875 61.4375 24.125 C58.55133793 27.04317127 57.01493031 28.06147631 52.88671875 28.515625 C51.64535156 28.46921875 50.40398437 28.4228125 49.125 28.375 C47.87074219 28.33890625 46.61648437 28.3028125 45.32421875 28.265625 C43.89529297 28.19601563 43.89529297 28.19601563 42.4375 28.125 C42.4375 29.115 42.4375 30.105 42.4375 31.125 C43.77554688 31.02058594 43.77554688 31.02058594 45.140625 30.9140625 C48.64592101 30.75192326 51.94989242 30.72641628 55.4375 31.125 C58 33.5 58 33.5 59.4375 37.125 C59.94990234 38.26775391 59.94990234 38.26775391 60.47265625 39.43359375 C65.53035293 51.05360656 67.65320806 63.38771831 63.49609375 75.66015625 C58.6090439 87.03922805 58.6090439 87.03922805 54.4375 89.125 C49.36980339 89.62279306 44.92180181 89.86715091 40.3125 87.5625 C37.72276341 84.19584243 37.22424697 82.39006069 37.4375 78.125 C38.77872091 75.85202749 40.27231211 73.9217301 41.9921875 71.921875 C44.9281337 68.27177972 44.880594 64.62978898 44.4375 60.125 C42.5056766 54.93076054 39.56644007 51.81007053 34.75 49.125 C29.60222339 46.81043578 24.99899537 46.5925164 19.4375 47.125 C19.334375 46.34125 19.23125 45.5575 19.125 44.75 C18.66154978 41.79454819 18.66154978 41.79454819 15.4375 40.125 C14.1175 41.445 12.7975 42.765 11.4375 44.125 C11.4375 39.505 11.4375 34.885 11.4375 30.125 C10.7775 30.125 10.1175 30.125 9.4375 30.125 C9.4375 34.085 9.4375 38.045 9.4375 42.125 C2.1177723 43.98594772 -5.03033285 44.68261615 -12.5625 45.125 C-12.830625 44.320625 -13.09875 43.51625 -13.375 42.6875 C-13.766875 41.841875 -14.15875 40.99625 -14.5625 40.125 C-16.0475 39.63 -16.0475 39.63 -17.5625 39.125 C-17.5625 41.435 -17.5625 43.745 -17.5625 46.125 C-23.18731465 40.80422938 -26.43920441 36.48473222 -26.66015625 28.671875 C-26.64855469 27.41890625 -26.63695313 26.1659375 -26.625 24.875 C-26.61597656 23.61171875 -26.60695313 22.3484375 -26.59765625 21.046875 C-26.58605469 20.08265625 -26.57445313 19.1184375 -26.5625 18.125 C-27.2225 18.125 -27.8825 18.125 -28.5625 18.125 C-28.5625 21.095 -28.5625 24.065 -28.5625 27.125 C-29.305 27.269375 -30.0475 27.41375 -30.8125 27.5625 C-33.45331149 28.03396546 -33.45331149 28.03396546 -35.46875 28.8125 C-38.34674371 29.2420513 -39.446469 28.30428785 -41.8125 26.6875 C-42.51890625 26.21441406 -43.2253125 25.74132812 -43.953125 25.25390625 C-44.48421875 24.88136719 -45.0153125 24.50882813 -45.5625 24.125 C-44.35868552 21.63138429 -43.10821278 19.44356917 -41.5625 17.125 C-41.60890625 16.30128906 -41.6553125 15.47757813 -41.703125 14.62890625 C-41.5625 12.125 -41.5625 12.125 -39.796875 10.46484375 C-33.28360637 6.78832891 -26.78299544 4.09341264 -19.5625 2.125 C-18.90145264 1.94404785 -18.24040527 1.7630957 -17.55932617 1.57666016 C-11.64772191 0.09532705 -6.07372712 -0.1158598 0 0 Z " fill="#F5D1A7" transform="translate(86.5625,26.875)"/>
<path d="M0 0 C5.5 3 5.5 3 7 6 C7.56002785 12.49632312 6.31757072 16.43122058 3 22 C3.62261719 22.13148437 4.24523437 22.26296875 4.88671875 22.3984375 C7 23 7 23 8.8125 24.625 C10.49565719 27.99131438 9.76115885 30.4017945 9 34 C9.7734375 34.08636719 10.546875 34.17273437 11.34375 34.26171875 C19.51524477 35.36406149 24.96795314 37.33450285 31.0625 42.875 C32.56134432 46.27238046 31.97453544 48.46730904 31 52 C29.49747207 54.25132873 27.87834802 56.02532644 26 58 C26.39832031 58.79921875 26.79664063 59.5984375 27.20703125 60.421875 C34.48226072 75.50337259 37.93433791 89.69973613 32.3203125 105.9921875 C28.76838597 114.08385444 22.55347482 120.44742119 15 125 C14.01 125 13.02 125 12 125 C12.17128418 125.62865967 12.34256836 126.25731934 12.51904297 126.9050293 C19.49572729 152.65657882 19.49572729 152.65657882 20 161 C19 162 19 162 17.25274563 162.12304783 C16.48673566 162.12212604 15.72072569 162.12120424 14.9315033 162.12025452 C13.61683327 162.12231651 13.61683327 162.12231651 12.27560425 162.12442017 C10.82228195 162.11902725 10.82228195 162.11902725 9.33959961 162.11352539 C8.32508224 162.11367142 7.31056488 162.11381744 6.26530457 162.1139679 C2.89429627 162.11326829 -0.47665754 162.10547368 -3.84765625 162.09765625 C-6.17793243 162.09579224 -8.508209 162.09436826 -10.83848572 162.09336853 C-16.98537265 162.08954202 -23.13223613 162.0797106 -29.27911377 162.06866455 C-35.54609866 162.05845329 -41.81308732 162.05387152 -48.08007812 162.04882812 C-60.38672908 162.03808845 -72.69336259 162.02101044 -85 162 C-85.0278563 160.26368303 -85.04758404 158.52723463 -85.06396484 156.79077148 C-85.07583832 155.82380844 -85.08771179 154.8568454 -85.09994507 153.86058044 C-84.95406309 149.68521536 -83.91777861 146.00983245 -82.625 142.0625 C-82.40328125 141.33482422 -82.1815625 140.60714844 -81.953125 139.85742188 C-80.88531795 136.42473627 -79.75669568 133.14399273 -78 130 C-78.8353125 129.88785156 -78.8353125 129.88785156 -79.6875 129.7734375 C-88.41521112 128.26967646 -93.58069778 124.24001327 -98.8125 117.1875 C-105.27978228 107.4055514 -107.77979815 95.25495038 -105.55078125 83.6640625 C-105.09771559 82.08957899 -104.55990269 80.53973238 -104 79 C-105.051875 79.0825 -106.10375 79.165 -107.1875 79.25 C-111 79 -111 79 -113.9375 77.375 C-116 75 -116 75 -116.6875 72.3125 C-115.02068608 64.28148747 -109.25110438 58.87586142 -103 54 C-103.71542969 53.33291016 -103.71542969 53.33291016 -104.4453125 52.65234375 C-106.51092013 50.45698689 -106.85394923 48.99404076 -107 46 C-105.5625 43.6875 -105.5625 43.6875 -104 42 C-104.9075 41.484375 -105.815 40.96875 -106.75 40.4375 C-110.40386548 37.9553016 -112.6484176 35.23716937 -114 31 C-114.50737547 25.9864424 -113.72166372 22.93056637 -110.625 18.9375 C-106.19384996 15.86978074 -101.1361125 16.21714525 -96 17 C-86.73464918 19.88936899 -80.55171354 26.73559845 -76 35 C-74.58074219 34.31164063 -74.58074219 34.31164063 -73.1328125 33.609375 C-57.12073977 26.08128034 -41.60802659 23.4162654 -24 23 C-23.78085938 22.29875 -23.56171875 21.5975 -23.3359375 20.875 C-20.66898275 12.89581831 -17.5023934 7.04555948 -11.125 1.5 C-7.22210364 -0.37339025 -4.25040555 -0.86191127 0 0 Z M-74 38 C-75.17207747 40.04048882 -75.17207747 40.04048882 -75.25 42.75 C-76.24495339 47.0614647 -77.96123406 48.81300157 -81 52 C-83.72111125 53.36055562 -86.02324571 53.11285165 -89.0625 53.1875 C-98.03476668 53.8403882 -102.97374687 57.66818287 -109.0625 64 C-111.31749372 66.72478408 -111.96548331 67.79289984 -112.5625 71.375 C-112.21760918 74.14455834 -112.21760918 74.14455834 -110 76 C-103.45759306 76.67680072 -99.60531609 75.22658951 -94 72 C-92.67040656 71.32590542 -91.33803609 70.65717702 -90 70 C-92.35125533 72.63340597 -94.4817559 74.29665577 -97.625 75.8125 C-100.43636477 77.3897539 -100.94279339 77.88309954 -102.4375 80.9375 C-104.8130439 93.45581559 -102.68086417 105.79443177 -95.75 116.5 C-91.77346445 121.77062363 -87.23254544 124.92248485 -81 127 C-78.66700175 127.03954234 -76.33291811 127.04401732 -74 127 C-74.40992188 128.07378906 -74.81984375 129.14757812 -75.2421875 130.25390625 C-75.78660716 131.69004776 -76.33086961 133.12624887 -76.875 134.5625 C-77.14441406 135.26697266 -77.41382813 135.97144531 -77.69140625 136.69726562 C-80.66052774 144.55457493 -82 150.31107028 -82 159 C-49.66 159 -17.32 159 16 159 C15.15084362 149.43478435 15.15084362 149.43478435 13.0625 140.4375 C11.4369155 134.65633038 10.05693439 128.91048836 9 123 C10.2375 122.690625 10.2375 122.690625 11.5 122.375 C20.2036779 118.95569797 25.02279869 113.35088375 29 105 C33.71979347 93.85060109 32.94131985 82.28782414 29 71 C26.22451258 64.04558758 26.22451258 64.04558758 22 58 C19.81360547 57.92741054 17.62499611 57.91626217 15.4375 57.9375 C14.23996094 57.94652344 13.04242188 57.95554687 11.80859375 57.96484375 C10.41833984 57.98224609 10.41833984 57.98224609 9 58 C9 57.01 9 56.02 9 55 C9.94101563 55.05800781 10.88203125 55.11601563 11.8515625 55.17578125 C19.90594484 55.81507817 19.90594484 55.81507817 26.875 52.5 C29.2677047 50.26771602 29.2677047 50.26771602 28.875 47.8125 C27.6900828 44.00383756 25.33542321 41.99286292 22 40 C15.02456394 37.13828264 5.977572 36.45142204 -1.28515625 38.7109375 C-1.85105469 38.99195313 -2.41695313 39.27296875 -3 39.5625 C-6.95760939 41.4588545 -8.81004124 41.24963682 -13 40 C-19.09779139 36.6298713 -21.53764702 33.39907781 -24 27 C-42.41607117 26.32071869 -58.00081891 28.23207891 -74 38 Z " fill="#340E0A" transform="translate(120,0)"/>
<path d="M0 0 C0.66 0 1.32 0 2 0 C2.05607422 1.37671875 2.05607422 1.37671875 2.11328125 2.78125 C2.62660677 12.3633264 3.32523328 19.63474017 10 27 C10.33 25.02 10.66 23.04 11 21 C12.32 21.33 13.64 21.66 15 22 C15.495 24.475 15.495 24.475 16 27 C23.26 26.01 30.52 25.02 38 24 C38 20.04 38 16.08 38 12 C38.66 12 39.32 12 40 12 C41.34956003 16.0486801 41.33485934 19.78077237 41 24 C36.12318721 28.99348295 27.74900188 28.84079581 21.1484375 29.12109375 C19.09856346 29.12434752 17.04869988 29.06944745 15 29 C14.505 28.01 14.505 28.01 14 27 C13.505 28.485 13.505 28.485 13 30 C10.33230578 29.84756033 8.55665291 29.55349011 6.625 27.6328125 C5.39651749 26.10452176 4.19710019 24.55299484 3 23 C2.34 22.67 1.68 22.34 1 22 C1.1546875 23.3303125 1.1546875 23.3303125 1.3125 24.6875 C0.90501428 29.00684858 -0.7722703 30.25642975 -4 33 C-3.20335937 33.08636719 -2.40671875 33.17273438 -1.5859375 33.26171875 C5.15114866 34.15507932 9.37872509 34.8922751 14 40 C16.28116236 43.00698675 16.42676202 46.1118843 16.30859375 49.8515625 C15.37495347 56.35158975 11.77760905 60.8561566 6.72265625 64.81640625 C2.3910782 67.7925245 -1.83650823 68.39253038 -7 69 C-6.9175 69.9075 -6.835 70.815 -6.75 71.75 C-7 75 -7 75 -8.5 77.25 C-12.50944996 80.05661497 -16.63055756 81 -21.5 81 C-28.73579492 78.10568203 -33.76940892 73.01302691 -37 66 C-40.96915367 56.18773159 -42.91469011 45.91244747 -40.0625 35.5 C-38.26496502 31.3437484 -34.93064227 29.84492506 -30.9609375 28.0078125 C-28.83286901 27.15831204 -28.83286901 27.15831204 -28 25 C-28.7734375 25.433125 -29.546875 25.86625 -30.34375 26.3125 C-41.03974221 32.0311493 -41.03974221 32.0311493 -48 31 C-50 29 -50 29 -50.5625 26.375 C-49.46475008 19.78850049 -43.98508567 15.50132758 -38.875 11.5625 C-34.06883987 8.48523396 -29.52739396 8.32088672 -23.91796875 8.30078125 C-20.67363616 7.96635875 -19.3695832 7.17450856 -17 5 C-16.5153125 5.38414063 -16.030625 5.76828125 -15.53125 6.1640625 C-11.50067709 9.16741406 -11.50067709 9.16741406 -6.6875 9.88671875 C-4.25035021 9.28667216 -4.25035021 9.28667216 -1 8 C-0.67 5.36 -0.34 2.72 0 0 Z " fill="#F3D1A7" transform="translate(58,45)"/>
<path d="M0 0 C2.97 0.33 5.94 0.66 9 1 C9.33 1.99 9.66 2.98 10 4 C7.69 4.66 5.38 5.32 3 6 C3 7.65 3 9.3 3 11 C5.31 11.66 7.62 12.32 10 13 C8.80180026 16.59459922 7.97177544 16.86607696 4.8125 18.75 C0.4453666 21.56840558 -3.33316548 24.46027406 -6 29 C-6.58776634 32.2553656 -6.58776634 32.2553656 -6 35 C-4.81334379 36.40086029 -4.81334379 36.40086029 -1.4375 36.3125 C2.74146471 36.28248948 5.55972809 35.03685096 9.140625 32.97265625 C11.07934678 31.95849296 12.86577037 31.44856596 15 31 C14 34 14 34 12.00390625 35.140625 C11.19824219 35.50671875 10.39257812 35.8728125 9.5625 36.25 C6.28042729 38.02127733 5.20337688 38.60951639 3.4375 42 C3.10579309 43.86256629 3.10579309 43.86256629 3 46 C2.88205078 47.42699219 2.88205078 47.42699219 2.76171875 48.8828125 C2.28054914 60.29340605 4.99396566 70.72835597 11.9453125 79.90234375 C17.13402428 85.19956471 23.718654 87.52512961 31 88 C30.36307476 91.6376967 29.37236815 94.92485673 28.0625 98.375 C25.32745629 105.78736485 23.88782223 112.00959989 23 120 C55.34 120 87.68 120 121 120 C117.76488086 101.67446892 117.76488086 101.67446892 114 91 C113.8125 86.9375 113.8125 86.9375 114 84 C114.72445312 83.6596875 115.44890625 83.319375 116.1953125 82.96875 C126.10825821 77.99905989 130.36444462 72.56172479 134.23828125 62.296875 C138.45559 49.58006707 135.52389273 36.50953345 129.76953125 24.7421875 C129 23 129 23 129 21 C129.99 21 130.98 21 132 21 C138.89926603 34.85307172 142.57450323 48.43238892 138.4375 63.75 C135.10967158 73.40768388 128.76147884 80.71934124 120 86 C119.01 86 118.02 86 117 86 C117.17128418 86.62865967 117.34256836 87.25731934 117.51904297 87.9050293 C124.49572729 113.65657882 124.49572729 113.65657882 125 122 C124 123 124 123 122.25274563 123.12304783 C121.48673566 123.12212604 120.72072569 123.12120424 119.9315033 123.12025452 C118.61683327 123.12231651 118.61683327 123.12231651 117.27560425 123.12442017 C115.82228195 123.11902725 115.82228195 123.11902725 114.33959961 123.11352539 C113.32508224 123.11367142 112.31056488 123.11381744 111.26530457 123.1139679 C107.89429627 123.11326829 104.52334246 123.10547368 101.15234375 123.09765625 C98.82206757 123.09579224 96.491791 123.09436826 94.16151428 123.09336853 C88.01462735 123.08954202 81.86776387 123.0797106 75.72088623 123.06866455 C69.45390134 123.05845329 63.18691268 123.05387152 56.91992188 123.04882812 C44.61327092 123.03808845 32.30663741 123.02101044 20 123 C19.9721437 121.26368303 19.95241596 119.52723463 19.93603516 117.79077148 C19.92416168 116.82380844 19.91228821 115.8568454 19.90005493 114.86058044 C20.04593691 110.68521536 21.08222139 107.00983245 22.375 103.0625 C22.70757812 101.97098633 22.70757812 101.97098633 23.046875 100.85742188 C24.11468205 97.42473627 25.24330432 94.14399273 27 91 C26.1646875 90.88785156 26.1646875 90.88785156 25.3125 90.7734375 C16.58478888 89.26967646 11.41930222 85.24001327 6.1875 78.1875 C-0.27978228 68.4055514 -2.77979815 56.25495038 -0.55078125 44.6640625 C-0.09771559 43.08957899 0.44009731 41.53973238 1 40 C-0.051875 40.0825 -1.10375 40.165 -2.1875 40.25 C-6 40 -6 40 -8.9375 38.375 C-11 36 -11 36 -11.6875 33.3125 C-10.02068608 25.28148747 -4.25110438 19.87586142 2 15 C1.52304687 14.55398437 1.04609375 14.10796875 0.5546875 13.6484375 C-1.52997932 11.43806213 -1.85605065 10.02293628 -2 7 C-1.05273046 5.30280873 -0.05771739 3.63064764 1 2 C0.67 1.34 0.34 0.68 0 0 Z " fill="#3F1913" transform="translate(15,39)"/>
<path d="M0 0 C5.84559635 2.05662587 10.68008065 4.60513106 14 10 C14.4125 10.61875 14.825 11.2375 15.25 11.875 C16.76972516 16.18088796 16.40223653 19.88267631 14.875 24.125 C12.30678923 28.06292318 9.25774835 30.87112583 5 33 C-0.80241278 33.48887732 -6.15748286 33.85545438 -11.5 31.375 C-16.43195897 26.68963897 -20.07949531 22.78801148 -20.3125 15.6875 C-20.25237316 11.05773338 -19.06591027 8.5630849 -16 5 C-10.66893675 0.30358714 -7.03313336 -0.94697257 0 0 Z " fill="#22274C" transform="translate(116,73)"/>
<path d="M0 0 C5.37842846 1.85800256 8.46081756 4.92163513 11 10 C11.54585103 16.33187191 10.7134799 20.76442514 7 26 C1.98444921 31.25492935 -1.90896979 33.15580931 -9.25 33.4375 C-14.91534451 33.41220828 -17.83788216 32.60558843 -21.828125 28.60546875 C-24.60639892 24.79923348 -24.31465491 20.49625306 -24 16 C-22.95812593 10.41176633 -21.34416256 7.65304579 -17 4 C-16.13375 3.236875 -15.2675 2.47375 -14.375 1.6875 C-9.54871091 -0.72564454 -5.29901488 -0.64756963 0 0 Z " fill="#1D2349" transform="translate(63,79)"/>
<path d="M0 0 C0 0.66 0 1.32 0 2 C-5.02439462 3.17989698 -10.07307316 3.35284499 -15.20507812 3.60546875 C-18.57575415 3.78903608 -21.76508527 3.99171489 -25 5 C-25.33 6.32 -25.66 7.64 -26 9 C-24.68 9.33 -23.36 9.66 -22 10 C-22.33 10.53625 -22.66 11.0725 -23 11.625 C-24.25954167 14.61641148 -24.34952958 16.78432784 -24 20 C-20.27933528 22.48044315 -17.13459526 22.44381173 -12.8125 22.625 C-12.06291016 22.66367188 -11.31332031 22.70234375 -10.54101562 22.7421875 C-8.69440801 22.83628216 -6.8472381 22.91922319 -5 23 C-5 23.99 -5 24.98 -5 26 C-5.66 26.33 -6.32 26.66 -7 27 C3.89 27.495 3.89 27.495 15 28 C15.33 26.68 15.66 25.36 16 24 C17 25 17 25 17 30 C-15.34 30 -47.68 30 -81 30 C-81 29.34 -81 28.68 -81 28 C-71.43 27.67 -61.86 27.34 -52 27 C-54.77260299 25.06201737 -54.77260299 25.06201737 -57 24 C-57 23.34 -57 22.68 -57 22 C-56.44014404 22.00523682 -55.88028809 22.01047363 -55.3034668 22.01586914 C-52.76482263 22.03666691 -50.22619641 22.04966904 -47.6875 22.0625 C-46.80642578 22.07087891 -45.92535156 22.07925781 -45.01757812 22.08789062 C-44.17001953 22.09111328 -43.32246094 22.09433594 -42.44921875 22.09765625 C-41.66893311 22.10289307 -40.88864746 22.10812988 -40.0847168 22.11352539 C-37.8038445 22.08137863 -37.8038445 22.08137863 -35 21 C-34.23826608 16.6835078 -33.83936396 13.25566547 -35 9 C-34.01 8.67 -33.02 8.34 -32 8 C-32 7.01 -32 6.02 -32 5 C-41.57 4.34 -51.14 3.68 -61 3 C-61 2.34 -61 1.68 -61 1 C-54.00689028 0.85856632 -47.04541321 1.08705764 -40.0625 1.4375 C-39.23387451 1.47673584 -38.40524902 1.51597168 -37.55151367 1.55639648 C-36.36779175 1.61935913 -36.36779175 1.61935913 -35.16015625 1.68359375 C-34.45511963 1.72025146 -33.75008301 1.75690918 -33.02368164 1.79467773 C-31 2 -31 2 -28.92749023 2.64477539 C-26.68082309 3.29011012 -26.68082309 3.29011012 -24 1 C-21.99462891 0.68115234 -21.99462891 0.68115234 -19.7265625 0.5859375 C-18.9015625 0.54726562 -18.0765625 0.50859375 -17.2265625 0.46875 C-16.36804688 0.4378125 -15.50953125 0.406875 -14.625 0.375 C-13.77421875 0.33632812 -12.9234375 0.29765625 -12.046875 0.2578125 C-8.0294609 0.08259818 -4.02202589 -0.04965464 0 0 Z " fill="#F7D5AA" transform="translate(119,129)"/>
<path d="M0 0 C8.68576204 3.53345517 14.74485567 11.01019375 19.34765625 18.88671875 C20 21 20 21 19.25 23.03515625 C18.63125 24.00775391 18.63125 24.00775391 18 25 C17.69964844 25.63421875 17.39929687 26.2684375 17.08984375 26.921875 C15.56893693 29.33470345 14.47741111 30.52004082 12 32 C6.41834641 33.0108282 0.60117623 32.66765075 -5 32 C-7 30 -7 30 -7.3125 27.5 C-7.1578125 26.2625 -7.1578125 26.2625 -7 25 C-3.77208445 22.8480563 -2.71599191 22.79913557 1 23 C0.20417677 20.82202218 0.20417677 20.82202218 -1.890625 20.359375 C-2.66921875 20.15828125 -3.4478125 19.9571875 -4.25 19.75 C-9.2621406 18.15377688 -11.23803164 16.48819859 -14 12 C-15.125 8.4375 -15.125 8.4375 -15 5 C-11.33660504 -0.93722632 -6.38293316 -1.20045991 0 0 Z " fill="#A27D64" transform="translate(24,20)"/>
<path d="M0 0 C0.84820312 0.00128906 1.69640625 0.00257812 2.5703125 0.00390625 C5.34284731 0.52551873 6.26599936 1.13595215 7.875 3.4375 C8.70753392 7.9112262 7.48064152 11.52140359 5.015625 15.25 C3.03747702 17.71917762 1.01235694 20.10539527 -1.125 22.4375 C-0.135 22.1075 0.855 21.7775 1.875 21.4375 C5.4375 21.25 5.4375 21.25 8.875 21.4375 C10.875 23.4375 10.875 23.4375 11.3125 25.8125 C10.875 28.4375 10.875 28.4375 8.875 30.5625 C4.11392997 33.53816877 0.03473854 35.36036648 -5.625 35.5625 C-10.58445541 33.96838933 -13.97204767 31.60727946 -17.125 27.4375 C-18.85710084 22.88171393 -17.45685705 19.26989282 -15.7109375 14.890625 C-8.79209369 -0.20165353 -8.79209369 -0.20165353 0 0 Z " fill="#A37E65" transform="translate(116.125,3.5625)"/>
<path d="M0 0 C3.32015872 2.08386162 6.2312203 4.46244061 8 8 C8.40137875 12.17433895 8.26194303 14.49551713 6.3125 18.25 C2.76760474 22.46555112 0.56686019 23.80103363 -4.9375 24.5 C-9.70314808 24.31982427 -11.76251637 22.39164952 -15 19 C-17.31205572 15.7421033 -17.47249357 12.93744642 -17 9 C-13.32743748 2.06293746 -8.12478559 -1.95056289 0 0 Z " fill="#FBF2E8" transform="translate(92,97)"/>
<path d="M0 0 C3.07948132 0.82119502 5.44583525 1.51972388 7.875 3.625 C9.52461492 7.10752038 9.63755939 10.2685998 9 14 C7.89468196 16.81353684 6.54589009 19.40511306 5 22 C5.62261719 22.13148437 6.24523437 22.26296875 6.88671875 22.3984375 C9 23 9 23 10.8125 24.625 C12.49565719 27.99131438 11.76115885 30.4017945 11 34 C11.7734375 34.08636719 12.546875 34.17273437 13.34375 34.26171875 C21.51524477 35.36406149 26.96795314 37.33450285 33.0625 42.875 C34.56134432 46.27238046 33.97453544 48.46730904 33 52 C31.48447509 54.18136208 29.79158 56.0246682 28 58 C28 58.66 28 59.32 28 60 C27.01 60.33 26.02 60.66 25 61 C24.67 60.34 24.34 59.68 24 59 C20.95418731 58.53045739 20.95418731 58.53045739 17.4375 58.375 C16.23996094 58.30023438 15.04242188 58.22546875 13.80859375 58.1484375 C12.88175781 58.09945312 11.95492187 58.05046875 11 58 C11 57.01 11 56.02 11 55 C12.42892578 54.96132812 12.42892578 54.96132812 13.88671875 54.921875 C15.14097656 54.86515625 16.39523438 54.8084375 17.6875 54.75 C18.92886719 54.70359375 20.17023438 54.6571875 21.44921875 54.609375 C25.41591675 53.92862155 27.12704336 52.74661246 30 50 C29.71711523 46.60538272 29.25867941 45.25867941 26.8125 42.8125 C19.43751503 38.05973191 11.50533887 38.34789297 3 39 C0.76738555 39.62833257 0.76738555 39.62833257 -1 40.5625 C-5.000832 42.47956533 -6.76627601 42.31391434 -11 41 C-19.46153846 35.61538462 -19.46153846 35.61538462 -21 31 C-20.01 29.515 -20.01 29.515 -19 28 C-18.4740625 29.0828125 -18.4740625 29.0828125 -17.9375 30.1875 C-15.47246788 33.76577243 -12.982715 36.19184739 -9 38 C-2.85523813 38.0975359 1.76846803 36.13109146 7 33 C8.28322547 31.9404123 8.28322547 31.9404123 8.125 29.5 C8.28322547 27.0595877 8.28322547 27.0595877 7 26 C5.31391034 25.92794489 3.62499341 25.91613932 1.9375 25.9375 C1.01839844 25.94652344 0.09929687 25.95554687 -0.84765625 25.96484375 C-1.55792969 25.97644531 -2.26820312 25.98804687 -3 26 C-1.70810398 23.18186404 -0.63993654 21.62237247 1.5625 19.3125 C4.35096569 16.0867897 4.76297061 13.1158778 5.15234375 8.953125 C5.19421892 6.76090011 5.19421892 6.76090011 3 5 C0.79749008 4.53993654 0.79749008 4.53993654 -1.625 4.375 C-2.44226563 4.30023437 -3.25953125 4.22546875 -4.1015625 4.1484375 C-4.72804688 4.09945313 -5.35453125 4.05046875 -6 4 C-6 3.67 -6 3.34 -6 3 C-2.535 2.505 -2.535 2.505 1 2 C0.67 1.34 0.34 0.68 0 0 Z " fill="#361510" transform="translate(118,0)"/>
<path d="M0 0 C5.84559635 2.05662587 10.68008065 4.60513106 14 10 C14.4125 10.61875 14.825 11.2375 15.25 11.875 C16.76972516 16.18088796 16.40223653 19.88267631 14.875 24.125 C12.30678923 28.06292318 9.25774835 30.87112583 5 33 C-7.33628967 34.03938352 -7.33628967 34.03938352 -11.625 31.1875 C-12.40875 30.465625 -13.1925 29.74375 -14 29 C-14.61875 28.46375 -15.2375 27.9275 -15.875 27.375 C-17 26 -17 26 -17 24 C-14.46265664 25.17108155 -12.52635395 26.37451083 -10.3125 28.125 C-6.00318231 30.56423643 -2.84373232 30.81681827 2 30 C5.76092295 28.73993009 9.04738479 27.51986828 11.20703125 24.07421875 C12.72331578 20.10797695 12.35014475 16.28386408 11.25 12.25 C9.84446677 9.72004018 8.42626114 8.53663205 6 7 C6.33 7.66 6.66 8.32 7 9 C7.51368822 13.08015218 7.89771513 17.20097889 6.0234375 20.95703125 C4.1728879 23.29008612 2.48237692 24.817479 -0.3125 25.875 C-0.869375 25.91625 -1.42625 25.9575 -2 26 C-2 25.01 -2 24.02 -2 23 C-3.65 23.33 -5.3 23.66 -7 24 C-6 22 -6 22 -2.9375 20.875 C-1.968125 20.58625 -0.99875 20.2975 0 20 C0 18.35 0 16.7 0 15 C-1.98 15.33 -3.96 15.66 -6 16 C-5.484375 15.443125 -4.96875 14.88625 -4.4375 14.3125 C-2.70523302 12.05914993 -2.70523302 12.05914993 -3.3125 9.25 C-3.539375 8.5075 -3.76625 7.765 -4 7 C-5.27875 6.835 -6.5575 6.67 -7.875 6.5 C-8.59429687 6.4071875 -9.31359375 6.314375 -10.0546875 6.21875 C-12.00498344 5.9627515 -12.00498344 5.9627515 -14 6 C-15.62514468 7.45833358 -15.62514468 7.45833358 -17 9 C-16.66032174 5.82966958 -16.00130809 5.00117393 -13.5625 2.8125 C-9.00575259 -0.41056524 -5.49954049 -0.74048276 0 0 Z " fill="#1E2248" transform="translate(116,73)"/>
<path d="M0 0 C0.99 0 1.98 0 3 0 C9.89926603 13.85307172 13.57450323 27.43238892 9.4375 42.75 C6.10967158 52.40768388 -0.23852116 59.71934124 -9 65 C-9.99 65 -10.98 65 -12 65 C-11.81824219 65.6705542 -11.63648438 66.3411084 -11.44921875 67.03198242 C-10.62635374 70.08212147 -9.81309214 73.13474191 -9 76.1875 C-8.71382812 77.24259766 -8.42765625 78.29769531 -8.1328125 79.38476562 C-7.86210937 80.40634766 -7.59140625 81.42792969 -7.3125 82.48046875 C-7.06113281 83.41785889 -6.80976563 84.35524902 -6.55078125 85.32104492 C-6.0077031 87.96253273 -5.8976878 90.31217316 -6 93 C-7.485 93.495 -7.485 93.495 -9 94 C-9.18175781 93.02160156 -9.36351562 92.04320312 -9.55078125 91.03515625 C-11.15688128 82.39878762 -11.15688128 82.39878762 -13.6875 74 C-15.08618443 70.16090263 -15.25966392 67.06806813 -15 63 C-14.27554688 62.6596875 -13.55109375 62.319375 -12.8046875 61.96875 C-2.89174179 56.99905989 1.36444462 51.56172479 5.23828125 41.296875 C9.45559 28.58006707 6.52389273 15.50953345 0.76953125 3.7421875 C0 2 0 2 0 0 Z " fill="#2F0A07" transform="translate(144,60)"/>
<path d="M0 0 C0 0.66 0 1.32 0 2 C-5.02439462 3.17989698 -10.07307316 3.35284499 -15.20507812 3.60546875 C-18.57575415 3.78903608 -21.76508527 3.99171489 -25 5 C-25.33 6.32 -25.66 7.64 -26 9 C-24.68 9.33 -23.36 9.66 -22 10 C-22.33 10.53625 -22.66 11.0725 -23 11.625 C-24.25954167 14.61641148 -24.34952958 16.78432784 -24 20 C-20.27933528 22.48044315 -17.13459526 22.44381173 -12.8125 22.625 C-12.06291016 22.66367188 -11.31332031 22.70234375 -10.54101562 22.7421875 C-8.69440801 22.83628216 -6.8472381 22.91922319 -5 23 C-5.33 23.66 -5.66 24.32 -6 25 C-8.56428515 25.13559675 -11.12135216 25.23433188 -13.6875 25.3125 C-14.40873047 25.35439453 -15.12996094 25.39628906 -15.87304688 25.43945312 C-19.99008448 25.53344942 -21.57204119 25.3165112 -25 22.78125 C-27.1184841 19.83523305 -27.57678226 18.72888229 -27.3125 15.1875 C-27.26738281 14.39730469 -27.22226563 13.60710937 -27.17578125 12.79296875 C-27.08876953 11.90544922 -27.08876953 11.90544922 -27 11 C-28.32 11 -29.64 11 -31 11 C-30.94199219 11.59167969 -30.88398437 12.18335938 -30.82421875 12.79296875 C-30.56676095 17.30215816 -30.46405512 19.30472016 -33.3125 23 C-38.48152241 26.84671435 -43.79894232 26.37085602 -50 26 C-52.46272277 25.5142142 -54.62764068 24.84350554 -57 24 C-57 23.34 -57 22.68 -57 22 C-56.44014404 22.00523682 -55.88028809 22.01047363 -55.3034668 22.01586914 C-52.76482263 22.03666691 -50.22619641 22.04966904 -47.6875 22.0625 C-46.36588867 22.07506836 -46.36588867 22.07506836 -45.01757812 22.08789062 C-44.17001953 22.09111328 -43.32246094 22.09433594 -42.44921875 22.09765625 C-41.66893311 22.10289307 -40.88864746 22.10812988 -40.0847168 22.11352539 C-37.8038445 22.08137863 -37.8038445 22.08137863 -35 21 C-34.23826608 16.6835078 -33.83936396 13.25566547 -35 9 C-34.01 8.67 -33.02 8.34 -32 8 C-32 7.01 -32 6.02 -32 5 C-41.57 4.34 -51.14 3.68 -61 3 C-61 2.34 -61 1.68 -61 1 C-54.00689028 0.85856632 -47.04541321 1.08705764 -40.0625 1.4375 C-39.23387451 1.47673584 -38.40524902 1.51597168 -37.55151367 1.55639648 C-36.76236572 1.59837158 -35.97321777 1.64034668 -35.16015625 1.68359375 C-34.45511963 1.72025146 -33.75008301 1.75690918 -33.02368164 1.79467773 C-31 2 -31 2 -28.92749023 2.64477539 C-26.68082309 3.29011012 -26.68082309 3.29011012 -24 1 C-21.99462891 0.68115234 -21.99462891 0.68115234 -19.7265625 0.5859375 C-18.9015625 0.54726562 -18.0765625 0.50859375 -17.2265625 0.46875 C-16.36804688 0.4378125 -15.50953125 0.406875 -14.625 0.375 C-13.77421875 0.33632812 -12.9234375 0.29765625 -12.046875 0.2578125 C-8.0294609 0.08259818 -4.02202589 -0.04965464 0 0 Z " fill="#603631" transform="translate(119,129)"/>
<path d="M0 0 C2.81009519 1.00875212 3.66697708 1.33395417 5 4 C5.25022167 9.08784056 5.0764816 12.2971385 3 17 C-7.74181943 17.61675518 -7.74181943 17.61675518 -12.1875 15.4375 C-14.63285071 12.14892491 -15.14373572 10.09646814 -15 6 C-10.50236894 0.40835058 -6.99506347 -0.56791604 0 0 Z " fill="#F6ACA1" transform="translate(139,99)"/>
<path d="M0 0 C1.65 0 3.3 0 5 0 C6.90790697 3.81581394 6.58733326 8.10355045 5.3515625 12.09375 C3.03056396 17.25152452 -0.30997442 20.85518007 -5 24 C-10.22247619 25.7408254 -15.56700053 25.70524512 -21 25 C-25.14654696 22.84488678 -27.5236355 20.42909351 -29 16 C-29.26086957 7.7826087 -29.26086957 7.7826087 -28 4 C-27.34 4 -26.68 4 -26 4 C-26.05800781 4.80824219 -26.11601563 5.61648437 -26.17578125 6.44921875 C-26.6180095 13.2809858 -26.6180095 13.2809858 -23.625 19.1875 C-18.79957483 22.51934119 -14.78304845 22.66362851 -9 22 C-6.33767261 20.92473903 -4.37757038 19.65396201 -2 18 C-3.96373455 16.03626545 -7.16845883 15.62674978 -9.7734375 14.81640625 C-12 14 -12 14 -15 12 C-14.67 11.34 -14.34 10.68 -14 10 C-13.01 10.66 -12.02 11.32 -11 12 C-8.37468476 12.16713569 -8.37468476 12.16713569 -6 12 C-6 11.01 -6 10.02 -6 9 C-7.32 8.34 -8.64 7.68 -10 7 C-8.72125 6.773125 -7.4425 6.54625 -6.125 6.3125 C-3.93067868 5.83899916 -3.93067868 5.83899916 -2 5 C-0.40311361 2.51686936 -0.40311361 2.51686936 0 0 Z " fill="#191F45" transform="translate(68,87)"/>
<path d="M0 0 C0.66 0.33 1.32 0.66 2 1 C3.87056791 1.2275015 5.74685958 1.40962811 7.625 1.5625 C8.62789062 1.64628906 9.63078125 1.73007813 10.6640625 1.81640625 C11.43492188 1.87699219 12.20578125 1.93757813 13 2 C13 2.33 13 2.66 13 3 C10.69 3.33 8.38 3.66 6 4 C6.12375 5.36125 6.12375 5.36125 6.25 6.75 C6 10 6 10 4.5 12.25 C0.36957696 15.14129613 -3.85756895 16.18629835 -8.875 15.75 C-11 15 -11 15 -13 13 C-13.75943364 9.2831565 -13.97725442 5.54760932 -11.90234375 2.26171875 C-7.97911641 -1.4522698 -4.9844436 -1.34196558 0 0 Z " fill="#F2A99E" transform="translate(45,110)"/>
<path d="M0 0 C4.29 0 8.58 0 13 0 C13.33 1.32 13.66 2.64 14 4 C12.68 4.33 11.36 4.66 10 5 C10.350625 5.680625 10.70125 6.36125 11.0625 7.0625 C12.25756854 10.8070481 11.99900309 13.21805972 11 17 C8.59813918 19.12472304 6.64208338 19.04395467 3.4375 19.4375 C0 19 0 19 -1.9375 17 C-3.84452765 11.61545134 -3.70309293 7.64055016 -1.5 2.5 C-1.005 1.675 -0.51 0.85 0 0 Z " fill="#FBF3E9" transform="translate(74,133)"/>
<path d="M0 0 C1.95766281 -0.08082094 3.91626728 -0.13910778 5.875 -0.1875 C7.51082031 -0.23970703 7.51082031 -0.23970703 9.1796875 -0.29296875 C10.11039063 -0.19628906 11.04109375 -0.09960938 12 0 C14.38081145 3.57121718 14.26906871 5.26674633 14.25 9.5 C14.25515625 10.6446875 14.2603125 11.789375 14.265625 12.96875 C14 16 14 16 12 19 C7.90643164 19.39615178 5.24102665 19.55846199 1.5 17.875 C0 16 0 16 -0.375 13.0625 C-0.023268 10.19002203 0.49931105 8.43861954 2 6 C1.01 5.67 0.02 5.34 -1 5 C-0.67 3.35 -0.34 1.7 0 0 Z " fill="#FBF3E9" transform="translate(94,133)"/>
<path d="M0 0 C0.66 0.99 1.32 1.98 2 3 C0.07942708 3.13020833 -1.84114583 3.26041667 -3.76171875 3.390625 C-8.23589609 4.60872564 -10.55453707 7.28315284 -12.94921875 11.13671875 C-16.1556599 17.68650527 -18.87210278 23.73132902 -20 31 C-20.66 30.01 -21.32 29.02 -22 28 C-24.98924072 27.33236257 -28.07041649 27.52899194 -31.125 27.5625 C-32.01703125 27.56499756 -32.9090625 27.56749512 -33.828125 27.57006836 C-41.21597568 27.71806216 -47.76750476 29.0788411 -54.8125 31.22265625 C-57.81605224 31.95514019 -59.18124523 32.12045502 -62 31 C-61.67 30.34 -61.34 29.68 -61 29 C-58.60049643 28.2159452 -56.25637894 27.54673238 -53.8125 26.9375 C-53.15185547 26.76412109 -52.49121094 26.59074219 -51.81054688 26.41210938 C-44.71783581 24.58466852 -37.91010649 23.79187918 -30.625 23.4375 C-29.79355469 23.39431641 -28.96210937 23.35113281 -28.10546875 23.30664062 C-26.07046772 23.20138195 -24.03525297 23.10026928 -22 23 C-21.67128906 21.948125 -21.67128906 21.948125 -21.3359375 20.875 C-18.14054461 11.31480014 -12.24821358 -1.94857943 0 0 Z " fill="#300806" transform="translate(118,0)"/>
<path d="M0 0 C0.99 0.33 1.98 0.66 3 1 C3.87890625 7.15234375 3.87890625 7.15234375 4 9 C3 10 3 10 1.25274563 10.12304783 C0.48673566 10.12212604 -0.27927431 10.12120424 -1.0684967 10.12025452 C-2.38316673 10.12231651 -2.38316673 10.12231651 -3.72439575 10.12442017 C-5.17771805 10.11902725 -5.17771805 10.11902725 -6.66040039 10.11352539 C-7.67491776 10.11367142 -8.68943512 10.11381744 -9.73469543 10.1139679 C-13.10570373 10.11326829 -16.47665754 10.10547368 -19.84765625 10.09765625 C-22.17793243 10.09579224 -24.508209 10.09436826 -26.83848572 10.09336853 C-32.98537265 10.08954202 -39.13223613 10.0797106 -45.27911377 10.06866455 C-51.54609866 10.05845329 -57.81308732 10.05387152 -64.08007812 10.04882812 C-76.38672908 10.03808845 -88.69336259 10.02101044 -101 10 C-99 8 -99 8 -97.19216728 7.75390434 C-96.45657648 7.75574793 -95.72098568 7.75759151 -94.96310425 7.75949097 C-94.11893951 7.75674164 -93.27477478 7.75399231 -92.4050293 7.75115967 C-91.477146 7.75835022 -90.5492627 7.76554077 -89.59326172 7.77294922 C-88.61761261 7.77265717 -87.6419635 7.77236511 -86.63674927 7.77206421 C-83.40097259 7.77346132 -80.16542412 7.78904049 -76.9296875 7.8046875 C-74.69052252 7.80841627 -72.45135591 7.81126388 -70.21218872 7.81326294 C-64.3102368 7.82091008 -58.40838286 7.84056785 -52.50646973 7.8626709 C-46.48739955 7.88310608 -40.46831359 7.89225967 -34.44921875 7.90234375 C-22.63276938 7.92381271 -10.81639283 7.95796167 1 8 C0.505 4.04 0.505 4.04 0 0 Z " fill="#280302" transform="translate(136,152)"/>
<path d="M0 0 C3.8584137 1.65360587 7.09763795 3.81929171 8.75 7.8125 C9.29136241 12.54942111 9.54849046 15.85913985 7.4375 20.25 C3.51696227 24.67317077 -0.70642094 26.12494718 -6.5 26.5 C-11.57320174 26.36076976 -14.20921876 24.2261968 -18 21 C-17.34 20.67 -16.68 20.34 -16 20 C-15.01 20.33 -14.02 20.66 -13 21 C-7.29375217 21.53832527 -4.4444534 20.61757835 0 17 C2.15164703 13.77252945 2.27245079 12.79494361 2.25 9.0625 C2.25515625 8.20785156 2.2603125 7.35320312 2.265625 6.47265625 C1.98713633 3.88025433 1.30669172 2.23485766 0 0 Z " fill="#EFF0F2" transform="translate(120,78)"/>
<path d="M0 0 C0.33 0 0.66 0 1 0 C1.08636719 0.73605469 1.17273437 1.47210938 1.26171875 2.23046875 C2.16643107 8.5136543 2.8406931 12.13051983 8 16 C10.35270593 17.17635297 11.820752 17.13359359 14.4375 17.125 C15.21996094 17.12757812 16.00242187 17.13015625 16.80859375 17.1328125 C19.17895347 17.08382548 19.17895347 17.08382548 22 16 C20.82058278 19.53825167 19.39853796 20.47549623 16.1640625 22.19921875 C12.12572736 23.69354854 8.21802204 23.70184551 4 23 C0.14455202 21.00342873 -1.59805092 19.60292362 -4 16 C-4.71582979 11.16398708 -4.80695466 6.55655093 -2.0625 2.375 C-1.0415625 1.199375 -1.0415625 1.199375 0 0 Z " fill="#EDEDF0" transform="translate(45,87)"/>
<path d="M0 0 C0.66 0 1.32 0 2 0 C2.03738281 0.9178125 2.07476562 1.835625 2.11328125 2.78125 C2.62660677 12.3633264 3.32523328 19.63474017 10 27 C10.33 25.02 10.66 23.04 11 21 C12.32 21.33 13.64 21.66 15 22 C15.33 23.65 15.66 25.3 16 27 C26.89 25.515 26.89 25.515 38 24 C38 20.04 38 16.08 38 12 C38.66 12 39.32 12 40 12 C41.34956003 16.0486801 41.33485934 19.78077237 41 24 C36.12318721 28.99348295 27.74900188 28.84079581 21.1484375 29.12109375 C19.09856346 29.12434752 17.04869988 29.06944745 15 29 C14.67 28.34 14.34 27.68 14 27 C13.67 27.99 13.34 28.98 13 30 C9.38739005 29.79356515 8.09727575 29.09253059 5.4375 26.5625 C-0.94846522 18.00733389 -1.49714647 10.3823853 0 0 Z " fill="#AA8368" transform="translate(58,45)"/>
<path d="M0 0 C2.97 0.33 5.94 0.66 9 1 C9.33 1.99 9.66 2.98 10 4 C7.69 4.66 5.38 5.32 3 6 C3 7.65 3 9.3 3 11 C5.31 11.66 7.62 12.32 10 13 C8.80180026 16.59459922 7.97177544 16.86607696 4.8125 18.75 C-1.39553633 22.77336112 -5.69330791 26.53805479 -7.375 33.9375 C-7.6049949 35.28815632 -7.82134414 36.64159939 -8 38 C-11 36 -11 36 -11.5625 33.4375 C-10.23449399 25.32190769 -4.23186034 19.86085107 2 15 C1.52304687 14.55398437 1.04609375 14.10796875 0.5546875 13.6484375 C-1.52997932 11.43806213 -1.85605065 10.02293628 -2 7 C-1.05273046 5.30280873 -0.05771739 3.63064764 1 2 C0.67 1.34 0.34 0.68 0 0 Z " fill="#310C09" transform="translate(15,39)"/>
<path d="M0 0 C0.66 0.66 1.32 1.32 2 2 C1.8125 4.0625 1.8125 4.0625 1 6 C0.01 6.33 -0.98 6.66 -2 7 C-2 9.64 -2 12.28 -2 15 C-0.68 14.67 0.64 14.34 2 14 C2.33 12.02 2.66 10.04 3 8 C3.99 8 4.98 8 6 8 C5.74919159 11.67852334 5.38558753 13.55599012 2.9375 16.375 C-1.1667414 18.64543141 -3.33580307 18.59227897 -8 18 C-10.5 16.1875 -10.5 16.1875 -12 14 C-12 13.01 -12 12.02 -12 11 C-11.34 11 -10.68 11 -10 11 C-9.01 12.485 -9.01 12.485 -8 14 C-7.01 14.33 -6.02 14.66 -5 15 C-5 12.69 -5 10.38 -5 8 C-6.65 7.67 -8.3 7.34 -10 7 C-10.6875 5.1875 -10.6875 5.1875 -11 3 C-8.68273884 -1.32555417 -4.26241368 -0.3382868 0 0 Z " fill="#7C3D32" transform="translate(91,99)"/>
<path d="M0 0 C0.58007812 0.37253906 1.16015625 0.74507812 1.7578125 1.12890625 C6.78757707 4.26399184 6.78757707 4.26399184 12.5625 4.8125 C13.366875 4.544375 14.17125 4.27625 15 4 C15.66 5.98 16.32 7.96 17 10 C15.02 10.66 13.04 11.32 11 12 C10.67 13.65 10.34 15.3 10 17 C7 17 7 17 4 16 C4.33 14.02 4.66 12.04 5 10 C2.69 8.35 0.38 6.7 -2 5 C-1.34 3.35 -0.68 1.7 0 0 Z " fill="#AE698A" transform="translate(40,50)"/>
<path d="M0 0 C0.66 0.33 1.32 0.66 2 1 C1.34 3.97 0.68 6.94 0 10 C0.99 10 1.98 10 3 10 C3.33 9.01 3.66 8.02 4 7 C4.99 8.485 4.99 8.485 6 10 C6.928125 9.62875 7.85625 9.2575 8.8125 8.875 C10.3903125 8.441875 10.3903125 8.441875 12 8 C12.99 8.66 13.98 9.32 15 10 C15.1875 12.625 15.1875 12.625 15 15 C11.05201168 16.97399416 6.30380009 16.43472728 2 16 C-1.125 14.4375 -1.125 14.4375 -3 12 C-4.0625 8.5625 -4.0625 8.5625 -4 5 C-2.0625 2.0625 -2.0625 2.0625 0 0 Z " fill="#F5AEA1" transform="translate(128,100)"/>
<path d="M0 0 C0.99 0 1.98 0 3 0 C9.01820047 12.08397565 14.05682881 25.85741858 9.98046875 39.3828125 C9.65691406 40.24648437 9.33335937 41.11015625 9 42 C8.34 41.67 7.68 41.34 7 41 C7.03480469 39.83984375 7.06960937 38.6796875 7.10546875 37.484375 C7.3629008 25.24190501 6.22556432 14.89946861 0.76953125 3.7421875 C0 2 0 2 0 0 Z " fill="#290503" transform="translate(144,60)"/>
<path d="M0 0 C0.73605469 0.00451172 1.47210938 0.00902344 2.23046875 0.01367188 C4.02868158 0.02534858 5.82685197 0.04327989 7.625 0.0625 C7.625 0.7225 7.625 1.3825 7.625 2.0625 C8.285 2.3925 8.945 2.7225 9.625 3.0625 C8.366875 3.08828125 7.10875 3.1140625 5.8125 3.140625 C-4.31800184 3.44477861 -13.45960648 4.42985234 -23.1875 7.3203125 C-26.17913658 8.01689455 -27.57086202 8.1701345 -30.375 7.0625 C-30.045 6.4025 -29.715 5.7425 -29.375 5.0625 C-26.97549643 4.2784452 -24.63137894 3.60923238 -22.1875 3 C-21.52685547 2.82662109 -20.86621094 2.65324219 -20.18554688 2.47460938 C-13.32248355 0.70633738 -7.04695771 -0.08283043 0 0 Z " fill="#2B0503" transform="translate(86.375,23.9375)"/>
<path d="M0 0 C3.82675963 1.50336986 5.48440888 3.83522408 8 7 C8.99 7.33 9.98 7.66 11 8 C13.1519437 11.22791555 13.20086443 12.28400809 13 16 C10.27734375 16.32421875 10.27734375 16.32421875 7 16 C4.62890625 13.76953125 4.62890625 13.76953125 2.5625 10.8125 C1.51255859 9.36810547 1.51255859 9.36810547 0.44140625 7.89453125 C-1 5 -1 5 -0.72265625 2.13671875 C-0.48417969 1.43160156 -0.24570312 0.72648437 0 0 Z " fill="#B48558" transform="translate(33,59)"/>
<path d="M0 0 C0.66 0 1.32 0 2 0 C1.94199219 0.80824219 1.88398437 1.61648437 1.82421875 2.44921875 C1.3819905 9.2809858 1.3819905 9.2809858 4.375 15.1875 C9.18646015 18.50969867 13.2269247 18.7910628 19 18 C21.35094935 16.89047605 23.31745306 15.63466577 25.40625 14.09375 C27 13 27 13 29 13 C29.33 12.01 29.66 11.02 30 10 C30.33 10.66 30.66 11.32 31 12 C27.73278452 16.32425578 25.30899738 19.29353656 20 21 C14.74356702 21.67146692 9.45192392 22.28877985 4.63671875 19.7578125 C1.69308923 17.30783513 0.22474481 15.67423444 -1 12 C-1.26086957 3.7826087 -1.26086957 3.7826087 0 0 Z " fill="#12143D" transform="translate(40,91)"/>
<path d="M0 0 C3.69230769 0.69230769 3.69230769 0.69230769 5 2 C5.39588785 5.56299065 5.42667508 7.37639795 3.375 10.375 C0.35164037 12.44361448 -1.40588208 12.46879799 -5 12 C-5.66 11.34 -6.32 10.68 -7 10 C-6.88813864 6.75602055 -5.74565619 5.72658041 -3.5 3.3125 C-2.675 2.549375 -1.85 1.78625 -1 1 C-0.67 0.67 -0.34 0.34 0 0 Z " fill="#A88165" transform="translate(54,65)"/>
<path d="M0 0 C0.99 0.99 1.98 1.98 3 3 C0.98087401 13.54432464 -6.54017615 20.03400177 -15 26 C-15.66 25.67 -16.32 25.34 -17 25 C-17 24.01 -17 23.02 -17 22 C-15.2421875 20.74609375 -15.2421875 20.74609375 -12.875 19.4375 C-5.82456415 14.98517752 -2.09902337 7.97628882 0 0 Z " fill="#4A2C23" transform="translate(150,99)"/>
<path d="M0 0 C0.66 0.33 1.32 0.66 2 1 C2.78279267 8.98448519 2.78279267 8.98448519 -0.3125 13 C-5.48152241 16.84671435 -10.79894232 16.37085602 -17 16 C-19.46272277 15.5142142 -21.62764068 14.84350554 -24 14 C-24 13.34 -24 12.68 -24 12 C-23.44014404 12.00523682 -22.88028809 12.01047363 -22.3034668 12.01586914 C-19.76482263 12.03666691 -17.22619641 12.04966904 -14.6875 12.0625 C-13.80642578 12.07087891 -12.92535156 12.07925781 -12.01757812 12.08789062 C-11.17001953 12.09111328 -10.32246094 12.09433594 -9.44921875 12.09765625 C-8.66893311 12.10289307 -7.88864746 12.10812988 -7.0847168 12.11352539 C-4.8038445 12.08137863 -4.8038445 12.08137863 -2 11 C-1.855625 9.9275 -1.71125 8.855 -1.5625 7.75 C-1.16250558 5.08337051 -0.72408076 2.58600271 0 0 Z " fill="#5B302B" transform="translate(86,139)"/>
<path d="M0 0 C4.13347071 0.47239665 7.35761877 2.05174957 11 4 C11.042721 5.66611905 11.04063832 7.33382885 11 9 C10 10 10 10 6.6875 10.3125 C3 10 3 10 0.5625 8.3125 C-1.27027568 5.59999199 -1.43372673 4.20957777 -1 1 C-0.67 0.67 -0.34 0.34 0 0 Z " fill="#AE876B" transform="translate(102,59)"/>
<path d="M0 0 C3.5 0.25 3.5 0.25 5.5 2.25 C5.17028521 5.54714793 4.8773161 6.8726839 2.5 9.25 C-1.0625 9.4375 -1.0625 9.4375 -4.5 9.25 C-5.5 8.25 -5.5 8.25 -5.6875 5.3125 C-5.41099677 0.7962806 -4.46127508 0.31866251 0 0 Z " fill="#F4F4F6" transform="translate(108.5,78.75)"/>
<path d="M0 0 C0.515625 0.721875 1.03125 1.44375 1.5625 2.1875 C4.38472541 5.44391393 7.03466973 8.20558792 11 10 C14.44379394 10.20598394 17.55661805 9.45468057 20.84765625 8.41796875 C23.74119022 7.85606651 26.32221596 8.15108634 29.25 8.4375 C30.86648437 8.59025391 30.86648437 8.59025391 32.515625 8.74609375 C33.74539062 8.87177734 33.74539062 8.87177734 35 9 C35 9.33 35 9.66 35 10 C34.21496094 10.03738281 33.42992187 10.07476562 32.62109375 10.11328125 C25.68521508 10.4385931 25.68521508 10.4385931 19.1875 12.625 C15.07379717 14.39953848 13.28253782 14.32906346 9 13 C0.53846154 7.61538462 0.53846154 7.61538462 -1 3 C-0.67 2.01 -0.34 1.02 0 0 Z " fill="#603530" transform="translate(98,28)"/>
<path d="M0 0 C0.99 0.33 1.98 0.66 3 1 C2.01 1.33 1.02 1.66 0 2 C0 4.64 0 7.28 0 10 C1.32 9.67 2.64 9.34 4 9 C4.33 7.02 4.66 5.04 5 3 C5.99 3 6.98 3 8 3 C7.74919159 6.67852334 7.38558753 8.55599012 4.9375 11.375 C0.8332586 13.64543141 -1.33580307 13.59227897 -6 13 C-8.5 11.1875 -8.5 11.1875 -10 9 C-10 8.01 -10 7.02 -10 6 C-9.34 6 -8.68 6 -8 6 C-7.01 7.485 -7.01 7.485 -6 9 C-5.01 9.33 -4.02 9.66 -3 10 C-2.87625 9.46375 -2.7525 8.9275 -2.625 8.375 C-1.87793984 5.5361714 -0.94696636 2.77776798 0 0 Z " fill="#874D43" transform="translate(89,104)"/>
<path d="M0 0 C3 0.25 3 0.25 5 2.25 C5.1875 5.3125 5.1875 5.3125 5 8.25 C4 9.25 4 9.25 2.1875 9.3828125 C1.465625 9.38023438 0.74375 9.37765625 0 9.375 C-0.721875 9.37757812 -1.44375 9.38015625 -2.1875 9.3828125 C-4 9.25 -4 9.25 -5 8.25 C-5.1875 5.3125 -5.1875 5.3125 -5 2.25 C-3 0.25 -3 0.25 0 0 Z " fill="#F6F7F8" transform="translate(62,83.75)"/>
<path d="M0 0 C0.309375 0.639375 0.61875 1.27875 0.9375 1.9375 C1.8345163 3.93610821 1.8345163 3.93610821 3 5 C8.73094147 5.50271416 12.16345746 4.84172597 17.140625 1.97265625 C19.07934678 0.95849296 20.86577037 0.44856596 23 0 C22 3 22 3 19.53125 4.46484375 C17.51143915 5.44611784 15.49060464 6.4252877 13.46875 7.40234375 C10.84753082 8.75526219 10.84753082 8.75526219 10.15625 11.19140625 C10.1046875 11.78824219 10.053125 12.38507813 10 13 C9.34 13 8.68 13 8 13 C8.33 11.68 8.66 10.36 9 9 C7.88625 9.020625 6.7725 9.04125 5.625 9.0625 C2 9 2 9 0 8 C0 5.36 0 2.72 0 0 Z " fill="#45221C" transform="translate(7,70)"/>
<path d="M0 0 C0.66 0 1.32 0 2 0 C5.25968109 9.41002278 5.25968109 9.41002278 6 14 C3.69 13.67 1.38 13.34 -1 13 C-1.680625 13.99 -1.680625 13.99 -2.375 15 C-2.91125 15.66 -3.4475 16.32 -4 17 C-4.66 17 -5.32 17 -6 17 C-6 16.34 -6 15.68 -6 15 C-6.66 15 -7.32 15 -8 15 C-8.33 14.01 -8.66 13.02 -9 12 C-7.68 12.33 -6.36 12.66 -5 13 C-4.938125 12.401875 -4.87625 11.80375 -4.8125 11.1875 C-3.6763243 8.12856542 -1.82669858 7.44958901 1 6 C0.67 4.02 0.34 2.04 0 0 Z " fill="#EBC9A8" transform="translate(55,53)"/>
<path d="M0 0 C3.07948132 0.82119502 5.44583525 1.51972388 7.875 3.625 C9.50682783 7.06996986 9.55318503 10.2979156 9 14 C7.5 17.5 7.5 17.5 6 20 C5.67 20 5.34 20 5 20 C5.02320312 19.08476562 5.04640625 18.16953125 5.0703125 17.2265625 C5.08835937 16.03804687 5.10640625 14.84953125 5.125 13.625 C5.14820312 12.44164062 5.17140625 11.25828125 5.1953125 10.0390625 C5.32866229 6.88846183 5.32866229 6.88846183 3 5 C0.79749008 4.53993654 0.79749008 4.53993654 -1.625 4.375 C-2.44226563 4.30023437 -3.25953125 4.22546875 -4.1015625 4.1484375 C-4.72804688 4.09945313 -5.35453125 4.05046875 -6 4 C-6 3.67 -6 3.34 -6 3 C-2.535 2.505 -2.535 2.505 1 2 C0.67 1.34 0.34 0.68 0 0 Z " fill="#4A251D" transform="translate(118,0)"/>
<path d="M0 0 C1.08751323 3.2625397 0.85191527 3.85863102 0 7 C-0.07818636 8.51395696 -0.10789909 10.03093507 -0.09765625 11.546875 C-0.09443359 12.39121094 -0.09121094 13.23554687 -0.08789062 14.10546875 C-0.07951172 14.97816406 -0.07113281 15.85085937 -0.0625 16.75 C-0.05573242 18.08224609 -0.05573242 18.08224609 -0.04882812 19.44140625 C-0.037074 21.62767329 -0.02064249 23.81380179 0 26 C-0.99 25.67 -1.98 25.34 -3 25 C-3.87545133 21.23416966 -4.1346822 17.73819781 -4.125 13.875 C-4.12757812 12.84117188 -4.13015625 11.80734375 -4.1328125 10.7421875 C-4 8 -4 8 -3 5 C-2.34 5 -1.68 5 -1 5 C-0.67 3.35 -0.34 1.7 0 0 Z " fill="#2E0603" transform="translate(18,78)"/>
<path d="M0 0 C0.99 0 1.98 0 3 0 C2.75 3.375 2.75 3.375 2 7 C-0.0625 8.4375 -0.0625 8.4375 -2 9 C-2.66 8.01 -3.32 7.02 -4 6 C-4.33 6.66 -4.66 7.32 -5 8 C-5.99 8 -6.98 8 -8 8 C-7.67 5.69 -7.34 3.38 -7 1 C-5.35 1.33 -3.7 1.66 -2 2 C-2 2.66 -2 3.32 -2 4 C-1.34 4 -0.68 4 0 4 C0 2.68 0 1.36 0 0 Z " fill="#F5988B" transform="translate(136,102)"/>
<path d="M0 0 C0.99 0 1.98 0 3 0 C2.71334273 5.876474 0.08745753 9.06433135 -4 13 C-6.76452033 14.38226016 -9.0461363 14.09525387 -12.125 14.0625 C-13.22070312 14.05347656 -14.31640625 14.04445313 -15.4453125 14.03515625 C-16.70988281 14.01775391 -16.70988281 14.01775391 -18 14 C-18 13.34 -18 12.68 -18 12 C-17.28714844 12.020625 -16.57429688 12.04125 -15.83984375 12.0625 C-9.87628634 11.95279662 -9.87628634 11.95279662 -4.7109375 9.2578125 C-0.95948025 5.21244302 -0.95948025 5.21244302 0 0 Z " fill="#5B302C" transform="translate(43,40)"/>
<path d="M0 0 C0.66 0.99 1.32 1.98 2 3 C0.783125 3.0825 -0.43375 3.165 -1.6875 3.25 C-5.8231965 3.7614819 -7.97274132 5.05923443 -11 8 C-11.598125 8.5775 -12.19625 9.155 -12.8125 9.75 C-13.4003125 10.36875 -13.4003125 10.36875 -14 11 C-14.66 10.34 -15.32 9.68 -16 9 C-15.0919838 7.86800647 -14.17316174 6.74467637 -13.25 5.625 C-12.73953125 4.99851562 -12.2290625 4.37203125 -11.703125 3.7265625 C-8.19636051 0.17153978 -4.9312734 -0.53600798 0 0 Z " fill="#350F0B" transform="translate(118,0)"/>
<path d="M0 0 C5.30557053 0.29475392 9.26462605 3.20678025 12.875 6.9375 C14.2451313 9.44940739 14.23497727 11.18027277 14 14 C13.01 14.495 13.01 14.495 12 15 C11.67 12.69 11.34 10.38 11 8 C10.01 8 9.02 8 8 8 C5.97386717 6.70672372 3.97485205 5.3703055 2 4 C0.6808418 3.30570621 -0.64649406 2.62469505 -2 2 C-1.34 1.34 -0.68 0.68 0 0 Z " fill="#492820" transform="translate(138,36)"/>
<path d="M0 0 C0.99 0.66 1.98 1.32 3 2 C3.1875 4.625 3.1875 4.625 3 7 C1.1875 7.625 1.1875 7.625 -1 8 C-1.99 7.34 -2.98 6.68 -4 6 C-4 7.32 -4 8.64 -4 10 C-4.66 10 -5.32 10 -6 10 C-6 7.69 -6 5.38 -6 3 C-2 3 -2 3 0 4 C-0.33 3.01 -0.66 2.02 -1 1 C-0.67 0.67 -0.34 0.34 0 0 Z " fill="#F5978A" transform="translate(42,112)"/>
<path d="M0 0 C2.49726675 1.15258465 4.40024642 2.32214955 6.5625 4.0625 C11.27518693 6.71874172 15.66891154 6.81028155 21 7 C21 7.66 21 8.32 21 9 C10.23280264 9.62721538 10.23280264 9.62721538 5.4375 7.1875 C4.633125 6.465625 3.82875 5.74375 3 5 C2.38125 4.46375 1.7625 3.9275 1.125 3.375 C0 2 0 2 0 0 Z " fill="#0E113B" transform="translate(99,97)"/>
<path d="M0 0 C0.66 0 1.32 0 2 0 C3.34956003 4.0486801 3.33485934 7.78077237 3 12 C1.5 14.0625 1.5 14.0625 -1 15 C-3.76935113 14.9260097 -6.25655942 14.50296411 -9 14 C-9 13.67 -9 13.34 -9 13 C-4.545 12.505 -4.545 12.505 0 12 C0 8.04 0 4.08 0 0 Z " fill="#B28B6E" transform="translate(96,57)"/>
<path d="M0 0 C-0.66 0.66 -1.32 1.32 -2 2 C-2.02253443 4.44963177 -2.02253443 4.44963177 -1.625 7.125 C-1.51414063 8.03507813 -1.40328125 8.94515625 -1.2890625 9.8828125 C-1.19367188 10.58148438 -1.09828125 11.28015625 -1 12 C-1.66 12 -2.32 12 -3 12 C-3.33 12.66 -3.66 13.32 -4 14 C-5.5912689 9.126739 -6.21192221 5.19209404 -6 0 C-3.50907189 -1.24546405 -2.58919267 -0.7767578 0 0 Z " fill="#38130E" transform="translate(135,123)"/>
<path d="M0 0 C0.65355469 0.48082031 1.30710937 0.96164063 1.98046875 1.45703125 C5.8412652 3.42988325 9.03939635 3.55384618 13.3125 3.6875 C14.05306641 3.72166016 14.79363281 3.75582031 15.55664062 3.79101562 C17.37058164 3.87293554 19.18526353 3.93815822 21 4 C20.67 4.66 20.34 5.32 20 6 C17.41603321 6.08112454 14.83462432 6.14054748 12.25 6.1875 C11.15558594 6.22520508 11.15558594 6.22520508 10.0390625 6.26367188 C6.76930099 6.30825953 4.40517115 6.21328109 1.484375 4.67578125 C0 3 0 3 0 0 Z " fill="#592E2A" transform="translate(93,148)"/>
<path d="M0 0 C0.1875 2.375 0.1875 2.375 0 5 C-3.22791555 7.1519437 -4.28400809 7.20086443 -8 7 C-8.33 5.68 -8.66 4.36 -9 3 C-3.375 0 -3.375 0 0 0 Z " fill="#EDEDF0" transform="translate(116,88)"/>
<path d="M0 0 C3 1 3 1 4.23828125 3.3984375 C4.59277344 4.38070312 4.94726562 5.36296875 5.3125 6.375 C5.86357422 7.84066406 5.86357422 7.84066406 6.42578125 9.3359375 C6.61527344 10.21507813 6.80476563 11.09421875 7 12 C6.01 13.485 6.01 13.485 5 15 C4.15415002 13.44424022 3.32381601 11.8800388 2.5 10.3125 C2.0359375 9.44238281 1.571875 8.57226562 1.09375 7.67578125 C-0.04818792 4.88211171 -0.21504208 2.98370887 0 0 Z " fill="#35100B" transform="translate(16,102)"/>
<path d="M0 0 C2.64 0.33 5.28 0.66 8 1 C8.5625 2.9375 8.5625 2.9375 9 5 C8.67 5.33 8.34 5.66 8 6 C5.66055264 5.71269945 3.3260857 5.38063221 1 5 C0.67 3.35 0.34 1.7 0 0 Z " fill="#E6E7EB" transform="translate(54,94)"/>
<path d="M0 0 C2.62664903 0.0867572 5.24978082 0.19357981 7.875 0.3125 C8.62136719 0.33505859 9.36773437 0.35761719 10.13671875 0.38085938 C12.099604 0.47811945 14.05328322 0.73042294 16 1 C16.66 1.99 17.32 2.98 18 4 C11.59370576 4.20852314 6.07027358 4.1583195 0 2 C0 1.34 0 0.68 0 0 Z " fill="#8A6254" transform="translate(62,151)"/>
<path d="M0 0 C0.66 0 1.32 0 2 0 C1.96519531 0.81984375 1.93039063 1.6396875 1.89453125 2.484375 C1.86746094 3.56203125 1.84039062 4.6396875 1.8125 5.75 C1.77769531 6.81734375 1.74289063 7.8846875 1.70703125 8.984375 C2.03305233 12.34021866 2.85112023 13.49579366 5 16 C5 16.66 5 17.32 5 18 C2.71216703 17.08486681 1.26550272 16.34515354 -0.25 14.375 C-1.7074455 9.75975593 -1.53202319 4.59606958 0 0 Z " fill="#0B0E39" transform="translate(40,91)"/>
<path d="M0 0 C0.66 0 1.32 0 2 0 C1.690625 0.845625 1.38125 1.69125 1.0625 2.5625 C-0.01538821 6.0497854 -0.56581304 9.38177535 -1 13 C-1.99 12.34 -2.98 11.68 -4 11 C-4.6064977 7.10108622 -4.29664155 5.45485038 -2.125 2.125 C-1.42375 1.42375 -0.7225 0.7225 0 0 Z " fill="#2A0603" transform="translate(8,64)"/>
<path d="M0 0 C0.33 0.99 0.66 1.98 1 3 C3.01508358 3.73323796 3.01508358 3.73323796 5 4 C4.55090939 5.48199902 4.09043436 6.96055236 3.625 8.4375 C3.36976562 9.26121094 3.11453125 10.08492187 2.8515625 10.93359375 C2 13 2 13 0 14 C0.01740234 13.07767578 0.01740234 13.07767578 0.03515625 12.13671875 C0.04417969 11.32847656 0.05320312 10.52023438 0.0625 9.6875 C0.07410156 8.88699219 0.08570312 8.08648437 0.09765625 7.26171875 C0.09657855 4.83138666 0.09657855 4.83138666 -1 2 C-0.67 1.34 -0.34 0.68 0 0 Z " fill="#69403A" transform="translate(92,135)"/>
<path d="M0 0 C0.33 0 0.66 0 1 0 C1.61538462 7.26153846 1.61538462 7.26153846 -1.5 11 C-2.325 11.66 -3.15 12.32 -4 13 C-4.6875 11.25 -4.6875 11.25 -5 9 C-3.6875 7.0625 -3.6875 7.0625 -2 5 C-1.28837557 3.35202764 -0.60968047 1.68834592 0 0 Z " fill="#FDF8F1" transform="translate(98,106)"/>
<path d="M0 0 C0.61875 0.639375 1.2375 1.27875 1.875 1.9375 C3.82597612 4.03883584 3.82597612 4.03883584 6 5 C5.79375 6.093125 5.5875 7.18625 5.375 8.3125 C4.59653475 12.0838401 4.59653475 12.0838401 7 15 C4.525 14.01 4.525 14.01 2 13 C2.020625 12.071875 2.04125 11.14375 2.0625 10.1875 C2.15769604 6.97713989 2.15769604 6.97713989 1 4 C0.01 3.67 -0.98 3.34 -2 3 C-1.34 3 -0.68 3 0 3 C0 2.01 0 1.02 0 0 Z " fill="#FBDAAE" transform="translate(43,63)"/>
<path d="M0 0 C0.66 1.32 1.32 2.64 2 4 C0.90081184 4.98475214 -0.2045602 5.96260473 -1.3125 6.9375 C-1.92738281 7.48277344 -2.54226562 8.02804688 -3.17578125 8.58984375 C-5 10 -5 10 -8 11 C-8 10.34 -8 9.68 -8 9 C-8.66 8.67 -9.32 8.34 -10 8 C-9.44570312 7.75765625 -8.89140625 7.5153125 -8.3203125 7.265625 C-7.59585938 6.93046875 -6.87140625 6.5953125 -6.125 6.25 C-5.40570313 5.92515625 -4.68640625 5.6003125 -3.9453125 5.265625 C-1.6629326 3.78070314 -0.99624102 2.49584592 0 0 Z " fill="#21254A" transform="translate(128,95)"/>
<path d="M0 0 C3.3 0.33 6.6 0.66 10 1 C9.625 3.4375 9.625 3.4375 9 6 C8.01 6.495 8.01 6.495 7 7 C6.67 6.01 6.34 5.02 6 4 C3.03 3.505 3.03 3.505 0 3 C0 2.01 0 1.02 0 0 Z " fill="#250604" transform="translate(36,126)"/>
<path d="M0 0 C0.625 1.8125 0.625 1.8125 1 4 C0.01 5.485 0.01 5.485 -1 7 C-0.01 7.33 0.98 7.66 2 8 C-0.97 8.66 -3.94 9.32 -7 10 C-4.98127747 5.96255494 -2.91899872 3.37989325 0 0 Z " fill="#290604" transform="translate(122,16)"/>
<path d="M0 0 C0.99 0.99 1.98 1.98 3 3 C2.40138258 5.35171131 1.73075648 7.6859378 1 10 C0.01 10.495 0.01 10.495 -1 11 C-1.66 10.67 -2.32 10.34 -3 10 C-2.01 6.7 -1.02 3.4 0 0 Z " fill="#583C32" transform="translate(150,99)"/>
<path d="M0 0 C0.66 0.33 1.32 0.66 2 1 C1.67 1.99 1.34 2.98 1 4 C0.34 3.67 -0.32 3.34 -1 3 C-6.88165736 2.53411718 -6.88165736 2.53411718 -12 5 C-12 4.01 -12 3.02 -12 2 C-8.08488397 -0.61007735 -4.5480334 -0.22006613 0 0 Z " fill="#F6EDE3" transform="translate(92,97)"/>
<path d="M0 0 C2.31 1.98 4.62 3.96 7 6 C6.67 6.99 6.34 7.98 6 9 C2.11137013 7.73882275 0.10624401 6.54735833 -2 3 C-2 2.34 -2 1.68 -2 1 C-1.34 0.67 -0.68 0.34 0 0 Z " fill="#411D17" transform="translate(10,32)"/>
<path d="M0 0 C0.66 0 1.32 0 2 0 C1.34 3.96 0.68 7.92 0 12 C-0.66 12 -1.32 12 -2 12 C-2.28571429 3.42857143 -2.28571429 3.42857143 0 0 Z " fill="#280402" transform="translate(37,147)"/>
<path d="M0 0 C0.66 0.33 1.32 0.66 2 1 C1.25 5.75 1.25 5.75 -1 8 C-2.32 8 -3.64 8 -5 8 C-3.62845496 5.04590299 -2.01136276 2.55991624 0 0 Z " fill="#F1CFA5" transform="translate(55,67)"/>
<path d="M0 0 C0.0825 0.61875 0.165 1.2375 0.25 1.875 C0.91214206 4.53489979 0.91214206 4.53489979 5 6 C-0.94 6.495 -0.94 6.495 -7 7 C-7 5.68 -7 4.36 -7 3 C-4.69 2.01 -2.38 1.02 0 0 Z " fill="#FCDBAD" transform="translate(113,67)"/>
<path d="M0 0 C4.45561213 2.97040808 4.55119013 6.89059359 5.625 11.9375 C5.74875 12.618125 5.8725 13.29875 6 14 C5.34 13.01 4.68 12.02 4 11 C0.91634129 10.7497843 0.91634129 10.7497843 -2 11 C-1.484375 10.484375 -0.96875 9.96875 -0.4375 9.4375 C1.57265701 6.0289729 0.79727396 3.76893143 0 0 Z " fill="#0E133A" transform="translate(112,78)"/>
<path d="M0 0 C1.11199708 3.33599124 0.85048737 3.77593023 0 7 C-0.22117559 9.4138176 -0.40572242 11.83114597 -0.5625 14.25 C-0.64628906 15.51328125 -0.73007812 16.7765625 -0.81640625 18.078125 C-0.87699219 19.04234375 -0.93757813 20.0065625 -1 21 C-1.33 21 -1.66 21 -2 21 C-2.33 15.72 -2.66 10.44 -3 5 C-2.34 5 -1.68 5 -1 5 C-0.67 3.35 -0.34 1.7 0 0 Z " fill="#1F0201" transform="translate(18,78)"/>
<path d="M0 0 C3.99455527 0.61454696 6.74466336 2.70646737 10 5 C9.67 5.66 9.34 6.32 9 7 C5.56072421 5.7580393 2.74792181 4.44259716 0 2 C0 1.34 0 0.68 0 0 Z " fill="#F69FCA" transform="translate(40,53)"/>
<path d="M0 0 C0.66 0.33 1.32 0.66 2 1 C2 3.64 2 6.28 2 9 C0.68 8.34 -0.64 7.68 -2 7 C-2.125 4.625 -2.125 4.625 -2 2 C-1.34 1.34 -0.68 0.68 0 0 Z " fill="#F59F94" transform="translate(142,102)"/>
<path d="M0 0 C1.32 0.99 2.64 1.98 4 3 C3.67 4.32 3.34 5.64 3 7 C1.35 7 -0.3 7 -2 7 C-1.34 4.69 -0.68 2.38 0 0 Z " fill="#FEF9F1" transform="translate(94,99)"/>
<path d="M0 0 C1.65 0 3.3 0 5 0 C4.34 1.98 3.68 3.96 3 6 C0 6 0 6 -3 5 C-3 4.34 -3 3.68 -3 3 C-2.01 3 -1.02 3 0 3 C0 2.01 0 1.02 0 0 Z " fill="#C07E9D" transform="translate(47,61)"/>
<path d="M0 0 C4.12751449 0.60698743 7.3321148 2.03810791 11 4 C10.67 5.32 10.34 6.64 10 8 C10 7.01 10 6.02 10 5 C9.2575 5.04125 8.515 5.0825 7.75 5.125 C4.86467775 4.99384899 3.37466663 4.61138093 1 3 C0.67 2.01 0.34 1.02 0 0 Z " fill="#A57E63" transform="translate(102,59)"/>
<path d="M0 0 C0.99 0.66 1.98 1.32 3 2 C3.1875 4.625 3.1875 4.625 3 7 C1.02 7 -0.96 7 -3 7 C-3.66 5.68 -4.32 4.36 -5 3 C-3 3 -3 3 -1.375 4.5 C-0.92125 4.995 -0.4675 5.49 0 6 C-0.185625 5.38125 -0.37125 4.7625 -0.5625 4.125 C-1 2 -1 2 0 0 Z " fill="#AC774E" transform="translate(43,68)"/>
<path d="M0 0 C0.86625 0.4640625 0.86625 0.4640625 1.75 0.9375 C3.84294184 1.92583364 5.74535275 2.5168613 8 3 C7.67 3.99 7.34 4.98 7 6 C4.625 6.1875 4.625 6.1875 2 6 C0 3 0 3 0 0 Z " fill="#F5D2A8" transform="translate(103,61)"/>
<path d="M0 0 C-1 3 -1 3 -2.84765625 4.16796875 C-3.57855469 4.50441406 -4.30945313 4.84085937 -5.0625 5.1875 C-5.79597656 5.53167969 -6.52945312 5.87585938 -7.28515625 6.23046875 C-8.13400391 6.61138672 -8.13400391 6.61138672 -9 7 C-9.33 6.01 -9.66 5.02 -10 4 C-3.375 0 -3.375 0 0 0 Z " fill="#361B15" transform="translate(30,70)"/>
<path d="M0 0 C1.25296875 0.13921875 2.5059375 0.2784375 3.796875 0.421875 C5.06015625 0.55078125 6.3234375 0.6796875 7.625 0.8125 C8.58921875 0.93109375 9.5534375 1.0496875 10.546875 1.171875 C10.546875 1.501875 10.546875 1.831875 10.546875 2.171875 C9.75023437 2.23246094 8.95359375 2.29304688 8.1328125 2.35546875 C0.30354803 2.96855366 0.30354803 2.96855366 -7.453125 4.171875 C-5.03175028 1.01675037 -4.05878975 0.20202121 0 0 Z " fill="#5D332B" transform="translate(122.453125,35.828125)"/>
<path d="M0 0 C0.33 0 0.66 0 1 0 C0.67 3.3 0.34 6.6 0 10 C-0.99 10 -1.98 10 -3 10 C-3.23226952 6.59338044 -3.35720302 4.59016151 -1.5625 1.625 C-0.7890625 0.820625 -0.7890625 0.820625 0 0 Z " fill="#3C140F" transform="translate(154,91)"/>
<path d="M0 0 C4.92307692 4.30769231 4.92307692 4.30769231 5.3125 7.8125 C5.209375 8.534375 5.10625 9.25625 5 10 C4.01 10.495 4.01 10.495 3 11 C2.67 8.69 2.34 6.38 2 4 C1.01 4 0.02 4 -1 4 C-1.33 3.34 -1.66 2.68 -2 2 C-1.34 2 -0.68 2 0 2 C0 1.34 0 0.68 0 0 Z " fill="#6F4B3D" transform="translate(147,40)"/>
<path d="M0 0 C0.66 0 1.32 0 2 0 C0.66667905 3.99996286 -1.4957827 4.83782337 -5 7 C-5.66 6.67 -6.32 6.34 -7 6 C-7 5.01 -7 4.02 -7 3 C-4.625 1.9375 -4.625 1.9375 -2 1 C-1.34 1.33 -0.68 1.66 0 2 C0 1.34 0 0.68 0 0 Z " fill="#5B3A2F" transform="translate(140,118)"/>
<path d="M0 0 C0.66 0 1.32 0 2 0 C2.99 1.98 3.98 3.96 5 6 C4.01 7.485 4.01 7.485 3 9 C1.5 7.875 1.5 7.875 0 6 C-0.1875 2.8125 -0.1875 2.8125 0 0 Z " fill="#F2E7DF" transform="translate(77,110)"/>
<path d="M0 0 C3.16115776 1.36983503 3.9927092 1.9890638 6 5 C5.625 7.1875 5.625 7.1875 5 9 C4.16094435 7.87926138 3.32892169 6.75325453 2.5 5.625 C2.0359375 4.99851562 1.571875 4.37203125 1.09375 3.7265625 C0 2 0 2 0 0 Z " fill="#FAEAAD" transform="translate(33,61)"/>
<path d="M0 0 C0 0.66 0 1.32 0 2 C-6.75 3.125 -6.75 3.125 -9 2 C-9 1.34 -9 0.68 -9 0 C-2.25 -1.125 -2.25 -1.125 0 0 Z " fill="#6C4239" transform="translate(116,39)"/>
<path d="M0 0 C1.86323318 0.25288812 3.71708432 0.57690153 5.5625 0.9375 C6.57441406 1.13214844 7.58632813 1.32679687 8.62890625 1.52734375 C9.80259766 1.76130859 9.80259766 1.76130859 11 2 C11 2.33 11 2.66 11 3 C9.56589632 3.24954005 8.12739928 3.47392642 6.6875 3.6875 C5.88699219 3.81511719 5.08648437 3.94273438 4.26171875 4.07421875 C2 4 2 4 0.20703125 2.51953125 C-0.19128906 2.01808594 -0.58960938 1.51664062 -1 1 C-0.67 0.67 -0.34 0.34 0 0 Z " fill="#1C1E43" transform="translate(45,108)"/>
<path d="M0 0 C0.66 0 1.32 0 2 0 C2.33 2.31 2.66 4.62 3 7 C2.34 7 1.68 7 1 7 C0.67 7.66 0.34 8.32 0 9 C-1.125 2.25 -1.125 2.25 0 0 Z " fill="#37100B" transform="translate(151,74)"/>
<path d="M0 0 C1.485 0.99 1.485 0.99 3 2 C2.67 2.66 2.34 3.32 2 4 C3.65 4.33 5.3 4.66 7 5 C7 5.33 7 5.66 7 6 C4.125 6.125 4.125 6.125 1 6 C0.34 5.34 -0.32 4.68 -1 4 C-0.625 1.875 -0.625 1.875 0 0 Z " fill="#B38D6F" transform="translate(48,71)"/>
<path d="M0 0 C-0.61875 0.598125 -1.2375 1.19625 -1.875 1.8125 C-4.13676954 4.00811144 -4.13676954 4.00811144 -6 7 C-6 4.69 -6 2.38 -6 0 C-3.50907189 -1.24546405 -2.58919267 -0.7767578 0 0 Z " fill="#3E1F19" transform="translate(135,123)"/>
<path d="M0 0 C0.33 0.66 0.66 1.32 1 2 C1.66 2 2.32 2 3 2 C1.90809958 4.18380083 0.8590123 5.42698959 -1 7 C-1.99 7 -2.98 7 -4 7 C-2.79618552 4.50638429 -1.54571278 2.31856917 0 0 Z " fill="#2A2A4E" transform="translate(44,84)"/>
<path d="M0 0 C0.33 0.66 0.66 1.32 1 2 C1.66 2.165 2.32 2.33 3 2.5 C3.66 2.665 4.32 2.83 5 3 C5.33 3.66 5.66 4.32 6 5 C2.52176885 6.15941038 0.54104422 5.70820884 -3 5 C-2.01 3.35 -1.02 1.7 0 0 Z " fill="#4B231B" transform="translate(122,20)"/>
<path d="M0 0 C2 4 2 4 1.3125 6.125 C0 8 0 8 -3 10 C-2.01 6.7 -1.02 3.4 0 0 Z " fill="#5C392D" transform="translate(42,129)"/>
<path d="M0 0 C4.455 0.99 4.455 0.99 9 2 C5.23312136 3.88343932 3.97041037 4.22057835 0 4 C0 2.68 0 1.36 0 0 Z " fill="#FEFAF3" transform="translate(81,116)"/>
<path d="M0 0 C2 3 2 3 3 6 C2.01 7.485 2.01 7.485 1 9 C-0.5625 6.6875 -0.5625 6.6875 -2 4 C-1 1 -1 1 0 0 Z " fill="#47251E" transform="translate(20,108)"/>
<path d="M0 0 C2.64 0.33 5.28 0.66 8 1 C7.67 1.99 7.34 2.98 7 4 C5.35 4 3.7 4 2 4 C1.34 2.68 0.68 1.36 0 0 Z " fill="#2C0705" transform="translate(17,51)"/>
<path d="M0 0 C0.598125 0.185625 1.19625 0.37125 1.8125 0.5625 C4.16408762 1.22093687 4.16408762 1.22093687 7 0 C6.34 1.65 5.68 3.3 5 5 C4.34 5 3.68 5 3 5 C3 4.34 3 3.68 3 3 C2.34 3 1.68 3 1 3 C0.67 2.01 0.34 1.02 0 0 Z " fill="#EECFB2" transform="translate(46,65)"/>
<path d="M0 0 C-0.375 1.9375 -0.375 1.9375 -1 4 C-1.99 4.495 -1.99 4.495 -3 5 C-3.66 4.34 -4.32 3.68 -5 3 C-2.25 0 -2.25 0 0 0 Z M-7 4 C-6.34 4 -5.68 4 -5 4 C-5 4.66 -5 5.32 -5 6 C-5.66 6 -6.32 6 -7 6 C-7 5.34 -7 4.68 -7 4 Z " fill="#361B15" transform="translate(145,114)"/>
<path d="M0 0 C0.66 0 1.32 0 2 0 C3.42944945 2.35438733 4.08661261 3.48032433 3.625 6.25 C3.41875 6.8275 3.2125 7.405 3 8 C0.37613513 4.93882432 0 4.26826873 0 0 Z " fill="#361510" transform="translate(22,114)"/>
<path d="M0 0 C0.66 0 1.32 0 2 0 C3.7143618 1.95927063 5.38405168 3.95880212 7 6 C2.25 5.25 2.25 5.25 0 3 C0 2.01 0 1.02 0 0 Z " fill="#6F2B21" transform="translate(79,110)"/>
<path d="M0 0 C0.99 0 1.98 0 3 0 C2.4140625 6.15234375 2.4140625 6.15234375 2 8 C1.01 8.495 1.01 8.495 0 9 C0 6.03 0 3.06 0 0 Z " fill="#2B0604" transform="translate(126,25)"/>
</svg>
